<svg xmlns="http://www.w3.org/2000/svg" width="26" height="31.779" viewBox="0 0 26 31.779">
  <g id="Group_9" data-name="Group 9" transform="translate(-711 -367.688)">
    <g id="padlock" transform="translate(674.452 367.688)">
      <path id="Path_34" data-name="Path 34" d="M61.916,15.077a2.089,2.089,0,0,0-1.535-.632h-.722V10.111A9.73,9.73,0,0,0,56.68,2.979a10.026,10.026,0,0,0-14.264,0,9.73,9.73,0,0,0-2.979,7.132v4.334h-.722a2.158,2.158,0,0,0-2.167,2.167v13a2.157,2.157,0,0,0,2.167,2.167H60.381a2.157,2.157,0,0,0,2.167-2.167v-13a2.088,2.088,0,0,0-.632-1.535Zm-6.59-.632H43.77V10.111a5.566,5.566,0,0,1,1.693-4.085,5.776,5.776,0,0,1,8.17,0,5.567,5.567,0,0,1,1.692,4.085Z" fill="#fff"/>
    </g>
  </g>
</svg>