<svg xmlns="http://www.w3.org/2000/svg" xmlns:xlink="http://www.w3.org/1999/xlink" width="180.775" height="66.492" viewBox="0 0 180.775 66.492">
  <defs>
    <filter id="Path_453" x="0" y="29.581" width="69.45" height="36.911" filterUnits="userSpaceOnUse">
      <feOffset dy="3" input="SourceAlpha"/>
      <feGaussianBlur stdDeviation="3" result="blur"/>
      <feFlood flood-opacity="0.161"/>
      <feComposite operator="in" in2="blur"/>
      <feComposite in="SourceGraphic"/>
    </filter>
  </defs>
  <g id="Group_182" data-name="Group 182" transform="translate(9399.275 -2448.508)">
    <g transform="matrix(1, 0, 0, 1, -9399.28, 2448.51)" filter="url(#Path_453)">
      <path id="Path_453-2" data-name="Path 453" d="M4.728,0H46.722A4.728,4.728,0,0,1,51.45,4.728v9.456a4.728,4.728,0,0,1-4.728,4.728H4.728A4.728,4.728,0,0,1,0,14.183V4.728A4.728,4.728,0,0,1,4.728,0Z" transform="translate(9 35.58)" fill="#0088ce"/>
    </g>
    <path id="Path_452" data-name="Path 452" d="M7.291,25.027H.214L11-6.208h8.51L30.274,25.027H23.2L15.13-.25h0Zm26.735,0V-6.208H46.349A12.594,12.594,0,0,1,52.4-4.858a9.3,9.3,0,0,1,3.82,3.737,11.178,11.178,0,0,1,1.319,5.5A10.94,10.94,0,0,1,56.2,9.859a9.328,9.328,0,0,1-3.881,3.706A13.049,13.049,0,0,1,46.181,14.9H40.63V25.027Zm6.6-15.419h4.484a5.607,5.607,0,0,0,4.232-1.456,5.23,5.23,0,0,0,1.4-3.775,5.144,5.144,0,0,0-1.4-3.759A5.724,5.724,0,0,0,45.083-.809H40.63Zm49.917-.2A18.122,18.122,0,0,1,88.617,18.1a13.461,13.461,0,0,1-5.239,5.468,15.709,15.709,0,0,1-14.931-.008,13.451,13.451,0,0,1-5.231-5.483,18.157,18.157,0,0,1-1.922-8.67A18.182,18.182,0,0,1,63.217.716a13.411,13.411,0,0,1,5.231-5.468,15.737,15.737,0,0,1,14.931,0A13.461,13.461,0,0,1,88.617.716,18.122,18.122,0,0,1,90.547,9.409Zm-6.7,0q0-4.972-2.166-7.587a7.661,7.661,0,0,0-11.53,0Q67.99,4.437,67.99,9.409q0,4.957,2.166,7.58a7.646,7.646,0,0,0,11.53,0Q83.851,14.366,83.851,9.409ZM95.427,25.027V-6.208h6.6v25.79h13.391v5.445Zm24.371,0V-6.208h6.6v25.79h13.39v5.445ZM171.652,9.409a18.122,18.122,0,0,1-1.929,8.693,13.46,13.46,0,0,1-5.239,5.468,15.709,15.709,0,0,1-14.931-.008,13.451,13.451,0,0,1-5.231-5.483,18.157,18.157,0,0,1-1.922-8.67A18.181,18.181,0,0,1,144.322.716a13.411,13.411,0,0,1,5.231-5.468,15.737,15.737,0,0,1,14.931,0A13.46,13.46,0,0,1,169.723.716,18.122,18.122,0,0,1,171.652,9.409Zm-6.7,0q0-4.972-2.166-7.587a7.661,7.661,0,0,0-11.53,0Q149.1,4.437,149.1,9.409q0,4.957,2.166,7.58a7.646,7.646,0,0,0,11.53,0Q164.957,14.366,164.957,9.409Z" transform="translate(-9390.152 2455.143)" fill="#0088ce"/>
    <text id="_.coach" data-name=".coach" transform="translate(-9386.956 2497.416)" fill="#fff" font-size="13" font-family="Inter-Regular, Inter"><tspan x="0" y="0">.coach</tspan></text>
    <text id="coaching_software" data-name="coaching software" transform="translate(-9334.677 2497.416)" fill="#0088ce" font-size="13" font-family="Inter-Regular, Inter"><tspan x="0" y="0">coaching software</tspan></text>
  </g>
</svg>