<svg xmlns="http://www.w3.org/2000/svg" width="37" height="30" viewBox="0 0 37 30">
  <path id="Path_881" data-name="Path 881" d="M28.25,32H37V28.5a5.25,5.25,0,0,0-9.373-3.25M28.25,32H10.75m17.5,0V28.5a8.719,8.719,0,0,0-.623-3.25M10.75,32H2V28.5a5.25,5.25,0,0,1,9.373-3.25M10.75,32V28.5a8.719,8.719,0,0,1,.623-3.25m0,0a8.753,8.753,0,0,1,16.254,0m-2.877-16A5.25,5.25,0,1,1,19.5,4,5.25,5.25,0,0,1,24.75,9.25Zm10.5,5.25a3.5,3.5,0,1,1-3.5-3.5A3.5,3.5,0,0,1,35.25,14.5Zm-24.5,0A3.5,3.5,0,1,1,7.25,11,3.5,3.5,0,0,1,10.75,14.5Z" transform="translate(-1 -3)" fill="none" stroke="#9d9d9d" stroke-linecap="round" stroke-linejoin="round" stroke-width="2"/>
</svg>