<svg xmlns="http://www.w3.org/2000/svg" width="37.09" height="33.218" viewBox="0 0 37.09 33.218">
  <g id="Group_39" data-name="Group 39" transform="translate(-1.955 -3)">
    <path id="Path_884" data-name="Path 884" d="M20.5,23.074,38,13.537,20.5,4,3,13.537Z" transform="translate(0)" fill="none" stroke="#9d9d9d" stroke-width="1"/>
    <path id="Path_885" data-name="Path 885" d="M18.685,17.105l12.043-6.527a22.524,22.524,0,0,1,1.3,12.358,23.651,23.651,0,0,0-13.343,5.718A23.651,23.651,0,0,0,5.344,22.936a22.515,22.515,0,0,1,1.3-12.358Z" transform="translate(1.815 6.563)" fill="none" stroke="#9d9d9d" stroke-width="1"/>
    <path id="Path_886" data-name="Path 886" d="M20.5,23.444,38,13.722,20.5,4,3,13.722Zm0,0,11.978-6.654a23.5,23.5,0,0,1,1.293,12.6A23.24,23.24,0,0,0,20.5,35.218,23.24,23.24,0,0,0,7.231,29.389a23.485,23.485,0,0,1,1.293-12.6ZM12.722,35.111V20.528L20.5,16.207" transform="translate(0)" fill="none" stroke="#9d9d9d" stroke-linecap="round" stroke-linejoin="round" stroke-width="2"/>
  </g>
</svg>